/* XPM */
static char * img31_xpm[] = {
/* width height ncolors chars_per_pixel */
"44 44 5 1",
/* colors */
" 	c white",
".	c #D5D5D5",
"X	c black",
"o	c #C5C1C5",
"O	c #B9BAB6",
/* pixels */
"                                           .",
" ..........................................X",
" ..........................................X",
" ..........................................X",
" o...o...o...o...o...o...o...o...o...o...o.X",
" ..........................................X",
" o.o.o.o.o.o.o.o.o.o.o.o.o.o.o.o.o.o.o.o.o.X",
" .........o.......o.......o.......o.......oX",
" o.o.o.o.o.o.o.o.o.o.o.o.o.o.o.o.o.o.o.o.o.X",
" ...o...o...o...o...o...o...o...o...o...o..X",
" o.o.o.o.o.o.o.o.o.o.o.o.o.o.o.o.o.o.o.o.o.X",
" o.o.o.o.o.o.o.o.o.o.X.o.o.o.o.o.o.o.o.o.o.X",
" .o.o.o.o.o.o.o.o.o.oXo.o.o.o.o.o.o.o.o.o.oX",
" o.o.o.o.o.o.o.o.o.o.X.o.o.o.o.o.o.o.o.o.o.X",
" oo.ooo.ooo.ooo.ooo.oXo.ooo.ooo.ooo.ooo.oooX",
" o.o.o.o.o.o.o.o.oXo.X.oXo.o.o.o.o.o.o.o.o.X",
" oooooooooooooooooXXoXoXXooooooooooooooooooX",
" o.o.o.o.o.o.o.o.o.XXXXX.o.o.o.o.o.o.o.o.o.X",
" oooooooooooooooooooXXXooooooooooooooooooooX",
" ooo.ooo.ooo.ooo.ooo.Xoo.ooo.ooo.ooo.ooo.ooX",
" ooooooooooooooooooooooooooooooooooooooooooX",
" oooXXXooXXXooXXXooXXXooXXXooXXXooXXXooXoooX",
" ooooooooooooooooooooooooooooooooooooooooooX",
" OoooOoooOoooOoooOoooXoooOoooOoooOoooOoooOoX",
" oooooooooooooooooooXXXooooooooooooooooooooX",
" ooOoooOoOoOoooOoOoXXXXXoOoOoooOoOoOoooOoOoX",
" oooooooooooooooooXXoXoXXooooooooooooooooooX",
" OoOoOoOoOoOoOoOoOXOoXoOXOoOoOoOoOoOoOoOoOoX",
" ooooooooooooooooooooXoooooooooooooooooooooX",
" OoOoOoOoOoOoOoOoOoOoXoOoOoOoOoOoOoOoOoOoOoX",
" oOoooOoooOoooOoooOooXOoooOoooOoooOoooOoooOX",
" OoOoOoOoOoOoOoOoOoOoXoOoOoOoOoOoOoOoOoOoOoX",
" oOoOoOoOoOoOoOoOoOoOoOoOoOoOoOoOoOoOoOoOoOX",
" OOoOOOoOOOoOOOoOOOoOOOoOOOoOOOoOOOoOOOoOOOX",
" OoOoOoOoOoOoOoOoOoOoOoOoOoOoOoOoOoOoOoOoOoX",
" OOOOOOOOOOOOOOOOOOOOOOOOOOOOOOOOOOOOOOOOOOX",
" OoOoOoOoOoOoOoOoOoOoOoOoOoOoOoOoOoOoOoOoOoX",
" OOOOOOOOOOOOOOOOOOOOOOOOOOOOOOOOOOOOOOOOOOX",
" OOOoOOOoOOOoOOOoOOOoOOOoOOOoOOOoOOOoOOOoOOX",
" OOOOOOOOOOOOOOOOOOOOOOOOOOOOOOOOOOOOOOOOOOX",
" OoOOOoOOOOOOOoOOOOOOOoOOOOOOOoOOOOOOOoOOOOX",
" OOOOOOOOOOOOOOOOOOOOOOOOOOOOOOOOOOOOOOOOOOX",
" OOOOOOOOOOOOOOOOOOOOOOOOOOOOOOOOOOOOOOOOOOX",
".XXXXXXXXXXXXXXXXXXXXXXXXXXXXXXXXXXXXXXXXXXX"};
