/* XPM */
static char * img27_xpm[] = {
/* width height ncolors chars_per_pixel */
"44 44 5 1",
/* colors */
" 	c white",
".	c #D5D5D5",
"X	c black",
"o	c #C5C1C5",
"O	c #B9BAB6",
/* pixels */
"                                           .",
" ..........................................X",
" ..........................................X",
" ..........................................X",
" o...o...o...o...o...X...o...o...o...o...o.X",
" ....................X.....................X",
" o.o.o.o.o.o.o.o.o.o.X.o.o.o.o.o.o.o.o.o.o.X",
" .........o.......o.......o.......o.......oX",
" o.o.o.o.o.o.o.o.o.o.o.o.o.o.o.o.o.o.o.o.o.X",
" ...o...o...o...o...oX..o...o...o...o...o..X",
" o.o.o.o.o.o.o.o.o.o.X.o.o.o.o.o.o.o.o.o.o.X",
" o.o.o.o.o.o.o.o.o.o.X.o.o.o.o.o.o.o.o.o.o.X",
" .o.o.o.o.o.o.o.o.o.o.o.o.o.o.o.o.o.o.o.o.oX",
" o.o.o.o.o.o.o.o.o.o.o.o.o.o.o.o.o.o.o.o.o.X",
" oo.ooo.ooo.ooo.ooo.oXo.ooo.ooo.ooo.ooo.oooX",
" o.o.o.o.o.o.o.o.o.o.X.o.o.o.o.o.o.o.o.o.o.X",
" ooooooooooooooooooooXoooooooooooooooooooooX",
" o.o.o.o.o.o.o.o.o.o.o.o.o.o.o.o.o.o.o.o.o.X",
" ooooooooooooooXXoooooooooXooooooooooooooooX",
" ooo.ooo.ooo.oooXXoo.Xoo.XXo.ooo.ooo.ooo.ooX",
" ooooooooooooooooXXooXooXXoooooooooooooooooX",
" ooooooooooXXXXXXXXXoXoXXXXXXXXXoooooooooooX",
" ooooooooooooooooXXoooooXXoooooooooooooooooX",
" OoooOoooOoooOooXXoooOoooXXooOoooOoooOoooOoX",
" ooooooooooooooXXooooXooooXooooooooooooooooX",
" ooOoooOoOoOoooOoOoOoXoOoOoOoooOoOoOoooOoOoX",
" ooooooooooooooooooooXoooooooooooooooooooooX",
" OoOoOoOoOoOoOoOoOoOoOoOoOoOoOoOoOoOoOoOoOoX",
" ooooooooooooooooooooooooooooooooooooooooooX",
" OoOoOoOoOoOoOoOoOoOoXoOoOoOoOoOoOoOoOoOoOoX",
" oOoooOoooOoooOoooOooXOoooOoooOoooOoooOoooOX",
" OoOoOoOoOoOoOoOoOoOoXoOoOoOoOoOoOoOoOoOoOoX",
" oOoOoOoOoOoOoOoOoOoOoOoOoOoOoOoOoOoOoOoOoOX",
" OOoOOOoOOOoOOOoOOOoOOOoOOOoOOOoOOOoOOOoOOOX",
" OoOoOoOoOoOoOoOoOoOoXoOoOoOoOoOoOoOoOoOoOoX",
" OOOOOOOOOOOOOOOOOOOOXOOOOOOOOOOOOOOOOOOOOOX",
" OoOoOoOoOoOoOoOoOoOoXoOoOoOoOoOoOoOoOoOoOoX",
" OOOOOOOOOOOOOOOOOOOOOOOOOOOOOOOOOOOOOOOOOOX",
" OOOoOOOoOOOoOOOoOOOoOOOoOOOoOOOoOOOoOOOoOOX",
" OOOOOOOOOOOOOOOOOOOOXOOOOOOOOOOOOOOOOOOOOOX",
" OoOOOoOOOOOOOoOOOOOOXoOOOOOOOoOOOOOOOoOOOOX",
" OOOOOOOOOOOOOOOOOOOOOOOOOOOOOOOOOOOOOOOOOOX",
" OOOOOOOOOOOOOOOOOOOOOOOOOOOOOOOOOOOOOOOOOOX",
".XXXXXXXXXXXXXXXXXXXXXXXXXXXXXXXXXXXXXXXXXXX"};
