/* XPM */
static char * img24_xpm[] = {
/* width height ncolors chars_per_pixel */
"44 44 5 1",
/* colors */
" 	c white",
".	c #D5D5D5",
"X	c black",
"o	c #C5C1C5",
"O	c #B9BAB6",
/* pixels */
"                                           .",
" ..........................................X",
" ..........................................X",
" ..........................................X",
" o...o...o...o...o...o...o...o...o...o...o.X",
" ..........................................X",
" o.o.o.o.o.o.o.o.o.o.o.o.o.o.o.o.o.o.o.o.o.X",
" .........o.......o.......o.......o.......oX",
" o.o.o.o.o.o.o.o.o.o.o.o.o.o.o.o.o.o.o.o.o.X",
" ...o...o...o...o...o...o...o...o...o...o..X",
" o.o.o.o.o.o.o.o.o.o.o.o.o.o.o.o.o.o.o.o.o.X",
" o.o.o.o.o.oXo.o.o.o.o.o.o.o.o.X.o.o.o.o.o.X",
" .o.o.o.o.o.XXo.o.o.o.o.o.o.o.XXo.o.o.o.o.oX",
" o.o.o.o.o.oXXXo.o.o.o.o.o.o.XXX.o.o.o.o.o.X",
" oo.ooo.ooo.oXXXooo.ooo.ooo.XXX.ooo.ooo.oooX",
" o.o.o.o.o.o.oXXXo.o.o.o.o.XXX.o.o.o.o.o.o.X",
" ooooooooooooooXXXooooooooXXXooooooooooooooX",
" o.o.o.o.o.o.o.oXXXo.o.o.XXX.o.o.o.o.o.o.o.X",
" ooooooooooooooooXXXooooXXXooooooooooooooooX",
" ooo.ooo.ooo.ooo.oXXXooXXXoo.ooo.ooo.ooo.ooX",
" ooooooooooooooooooXXXXXXooooooooooooooooooX",
" oooooooooooooooooooXXXXoooooooooooooooooooX",
" oooooooooooooooooooXXXXoooooooooooooooooooX",
" OoooOoooOoooOoooOoXXXXXXOoooOoooOoooOoooOoX",
" oooooooooooooooooXXXooXXXoooooooooooooooooX",
" ooOoooOoOoOoooOoXXXoooOXXXOoooOoOoOoooOoOoX",
" oooooooooooooooXXXooooooXXXoooooooooooooooX",
" OoOoOoOoOoOoOoXXXoOoOoOoOXXXOoOoOoOoOoOoOoX",
" oooooooooooooXXXooooooooooXXXoooooooooooooX",
" OoOoOoOoOoOoXXXoOoOoOoOoOoOXXXOoOoOoOoOoOoX",
" oOoooOoooOoXXXoooOoooOoooOooXXXooOoooOoooOX",
" OoOoOoOoOoOXXoOoOoOoOoOoOoOoOXXoOoOoOoOoOoX",
" oOoOoOoOoOoXoOoOoOoOoOoOoOoOoOXOoOoOoOoOoOX",
" OOoOOOoOOOoOOOoOOOoOOOoOOOoOOOoOOOoOOOoOOOX",
" OoOoOoOoOoOoOoOoOoOoOoOoOoOoOoOoOoOoOoOoOoX",
" OOOOOOOOOOOOOOOOOOOOOOOOOOOOOOOOOOOOOOOOOOX",
" OoOoOoOoOoOoOoOoOoOoOoOoOoOoOoOoOoOoOoOoOoX",
" OOOOOOOOOOOOOOOOOOOOOOOOOOOOOOOOOOOOOOOOOOX",
" OOOoOOOoOOOoOOOoOOOoOOOoOOOoOOOoOOOoOOOoOOX",
" OOOOOOOOOOOOOOOOOOOOOOOOOOOOOOOOOOOOOOOOOOX",
" OoOOOoOOOOOOOoOOOOOOOoOOOOOOOoOOOOOOOoOOOOX",
" OOOOOOOOOOOOOOOOOOOOOOOOOOOOOOOOOOOOOOOOOOX",
" OOOOOOOOOOOOOOOOOOOOOOOOOOOOOOOOOOOOOOOOOOX",
".XXXXXXXXXXXXXXXXXXXXXXXXXXXXXXXXXXXXXXXXXXX"};
