/* XPM */
static char * img32_xpm[] = {
/* width height ncolors chars_per_pixel */
"44 44 5 1",
/* colors */
" 	c white",
".	c #D5D5D5",
"X	c black",
"o	c #C5C1C5",
"O	c #B9BAB6",
/* pixels */
"                                           .",
" ..........................................X",
" ..........................................X",
" ..........................................X",
" o..Xo...o...o...o...o...o...o...o...o...o.X",
" ...X......................................X",
" o.oXo.o.o.o.o.o.o.o.o.o.o.o.o.o.o.o.o.o.o.X",
" .........o.......o.......o.......o.......oX",
" o.o.o.o.o.o.o.o.o.o.o.o.o.o.o.o.o.o.o.o.o.X",
" ...X...o...o...o...o...o...o...o...o...o..X",
" o.oXo.o.o.o.o.o.o.o.o.o.o.o.o.o.o.o.o.o.o.X",
" o.oXo.o.o.o.o.o.o.o.o.o.o.o.o.o.o.o.o.o.o.X",
" .o.o.o.o.o.o.o.o.o.o.o.o.o.o.o.o.o.o.o.o.oX",
" o.o.o.o.o.o.o.o.o.o.o.o.o.o.o.o.o.o.o.o.o.X",
" oo.Xoo.ooo.ooo.ooo.ooo.ooo.ooo.ooo.ooo.oooX",
" o.oXo.o.o.o.o.o.o.o.o.o.o.o.o.o.o.o.o.o.o.X",
" oooXooooooooooooooooooooooooooooooooooooooX",
" o.o.o.o.o.o.o.o.o.o.o.o.o.o.o.o.o.o.o.o.o.X",
" ooooooooXXooooooooooooooooooooooooooooooooX",
" oooXoooXXoo.ooo.ooo.ooo.ooo.ooo.ooo.ooo.ooX",
" oooXooXXooooooooooooooooooooooooooooooooooX",
" oooXoXXXXXXXXXooooooooooooooooooooooooooooX",
" ooooooXXooooooooooooooooooooooooooooooooooX",
" OoooOooXXoooOoooOoooOoooOoooOoooOoooOoooOoX",
" oooXooooXXooooooooooooooooooooooooooooooooX",
" ooOXooOoOoOoooOoOoOoooOoOoOoooOoOoOoooOoOoX",
" oooXooooooooooooooooooooooooooooooooooooooX",
" OoOoOoOoOoOoOoOoOoOoOoOoOoOoOoOoOoOoOoOoOoX",
" ooooooooooooooooooooooooooooooooooooooooooX",
" OoOXOoOoOoOoOoOoOoOoOoOoOoOoOoOoOoOoOoOoOoX",
" oOoXoOoooOoooOoooOoooOoooOoooOoooOoooOoooOX",
" OoOXOoOoOoOoOoOoOoOoOoOoOoOoOoOoOoOoOoOoOoX",
" oOoOoOoOoOoOoOoOoOoOoOoOoOoOoOoOoOoOoOoOoOX",
" OOoOOOoOOOoOOOoOOOoOOOoOOOoOOOoOOOoOOOoOOOX",
" OoOXOoOoOoOoOoOoOoOoOoOoOoOoOoOoOoOoOoOoOoX",
" OOOXOOOOOOOOOOOOOOOOOOOOOOOOOOOOOOOOOOOOOOX",
" OoOXOoOoOoOoOoOoOoOoOoOoOoOoOoOoOoOoOoOoOoX",
" OOOOOOOOOOOOOOOOOOOOOOOOOOOOOOOOOOOOOOOOOOX",
" OOOoOOOoOOOoOOOoOOOoOOOoOOOoOOOoOOOoOOOoOOX",
" OOOXOOOOOOOOOOOOOOOOOOOOOOOOOOOOOOOOOOOOOOX",
" OoOXOoOOOOOOOoOOOOOOOoOOOOOOOoOOOOOOOoOOOOX",
" OOOOOOOOOOOOOOOOOOOOOOOOOOOOOOOOOOOOOOOOOOX",
" OOOOOOOOOOOOOOOOOOOOOOOOOOOOOOOOOOOOOOOOOOX",
".XXXXXXXXXXXXXXXXXXXXXXXXXXXXXXXXXXXXXXXXXXX"};
