/* XPM */
static char * img2_xpm[] = {
/* width height ncolors chars_per_pixel */
"44 44 5 1",
/* colors */
" 	c white",
".	c #D5D5D5",
"X	c black",
"o	c #C5C1C5",
"O	c #B9BAB6",
/* pixels */
"                                           .",
" ..........................................X",
" ..........................................X",
" ..........................................X",
" o...o...o...o...o...o...o...o...o...o...o.X",
" ..........................................X",
" o.o.o.o.o.o.o.o.o.o.o.o.o.o.o.o.o.o.o.o.o.X",
" .........o.......o.......o.......o.......oX",
" o.o.o.o.o.o.o.o.o.o.o.o.o.o.o.o.o.o.o.o.o.X",
" ...o...o...o...o...o...o...o...o...o...o..X",
" o.o.o.o.o.o.o.o.o.o.o.o.o.o.o.o.o.o.o.o.o.X",
" o.o.o.o.o.o.o.o.o.o.o.o.o.o.o.o.o.o.o.o.o.X",
" .o.o.o.o.o.o.o.o.o.o.o.o.o.o.o.o.o.o.o.o.oX",
" o.o.o.o.o.o.o.o.o.o.o.o.o.o.o.o.o.o.o.o.o.X",
" oo.ooo.ooo.ooo.ooo.ooo.ooo.ooo.ooo.ooo.oooX",
" o.o.o.o.o.o.X.o.o.o.XXX.o.o.o.o.o.o.o.o.o.X",
" oooooooooooXXXoooooooXXoooooooooooooooooooX",
" o.o.o.o.o.oXXXo.o.o.oXX.o.o.o.o.o.o.o.o.o.X",
" oooooooooooXoXoooooooXXoooooooooooooooooooX",
" ooo.ooo.ooXXoXX.ooo.oXX.XXX.oooXXXX.ooo.ooX",
" ooooooooooXooXXooooooXXXoXXXooXXooXXooooooX",
" oooooooooXXooXXXoooooXXoooXXoXXoooXXooooooX",
" oooooooooXooooXXoooooXXoooXXoXXoooooooooooX",
" OoooOoooOXXXXXXXOoooOXXoOoXXOXXoOoooOoooOoX",
" ooooooooXXooooXXXooooXXoooXXoXXoooooooooooX",
" ooOoooOoXoOoooOXXoOooXXoOoXXoXXoOoOoooOoOoX",
" oooooooXXooooooXXXoooXXXoXXoooXXoooXooooooX",
" OoOoOoXXXXOoOoXXXXXoOoXXXXOoOoOXXXXoOoOoOoX",
" ooooooooooooooooooooooooooooooooooooooooooX",
" OoOoOoOoOoOoOoOoOoOoOoOoOoOoOoOoOoOoOoOoOoX",
" oOoooOoooOoooOoooOoooOoooOoooOoooOoooOoooOX",
" OoOoOoOoOoOoOoOoOoOoOoOoOoOoOoOoOoOoOoOoOoX",
" oOoOoOoOoOoOoOoOoOoOoOoOoOoOoOoOoOoOoOoOoOX",
" OOoOOOoOOOoOOOoOOOoOOOoOOOoOOOoOOOoOOOoOOOX",
" OoOoOoOoOoOoOoOoOoOoOoOoOoOoOoOoOoOoOoOoOoX",
" OOOOOOOOOOOOOOOOOOOOOOOOOOOOOOOOOOOOOOOOOOX",
" OoOoOoOoOoOoOoOoOoOoOoOoOoOoOoOoOoOoOoOoOoX",
" OOOOOOOOOOOOOOOOOOOOOOOOOOOOOOOOOOOOOOOOOOX",
" OOOoOOOoOOOoOOOoOOOoOOOoOOOoOOOoOOOoOOOoOOX",
" OOOOOOOOOOOOOOOOOOOOOOOOOOOOOOOOOOOOOOOOOOX",
" OoOOOoOOOOOOOoOOOOOOOoOOOOOOOoOOOOOOOoOOOOX",
" OOOOOOOOOOOOOOOOOOOOOOOOOOOOOOOOOOOOOOOOOOX",
" OOOOOOOOOOOOOOOOOOOOOOOOOOOOOOOOOOOOOOOOOOX",
".XXXXXXXXXXXXXXXXXXXXXXXXXXXXXXXXXXXXXXXXXXX"};
