/* XPM */
static char *icn39[]={
"44 44 8 1",
"a c #000000",
"d c #0000c0",
"e c #0000ff",
"c c #0080ff",
"f c #b9bab6",
"b c #c5c1c5",
"# c #d5d5d5",
". c #ffffff",
"...........................................#",
".##########################################a",
".##########################################a",
".##########################################a",
".b###b###b###b###b###b###b###b###b###b###b#a",
".########cccccccd##########################a",
".b#b#b#b#cccccccdb#b#b#b#b#b#b#b#b#b#b#b#b#a",
".########cc####dd#b#######b#######b#######ba",
".b#b#b#b#ccb#b#ddb#b#b#b#b#b#b#b#b#b#b#b#b#a",
".###b####cc####dd###b###b###b###b###b###b##a",
".b#b#b#b#ccb#b#ddb#b#b#b#b#b#b#b#b#b#b#b#b#a",
".b#b#b#b#ccddddddb#b#b#b#b#b#b#b#b#b#b#b#b#a",
".#b#b#b##dddddddd#b#b#b#b#b#b#b#b#b#b#b#b#ba",
".b#b#b#b#b#bee#b#b#b#b#b#b#b#b#b#b#b#b#b#b#a",
".bb#bbb#bbb#eeb#bbb#bbb#bbb#bbb#bbb#bbb#bbba",
".b#b#b#b#b#bee#b#b#b#b#b#b#b#b#b#b#b#b#b#b#a",
".bbbbbbbbbbbeebbbbbbbbbbbbbbbbbbbbbbbbbbbbba",
".b#b#b#b#b#bee#b#b#b#b#b#b#b#b#b#b#b#b#b#b#a",
".bbbbbbbbbbbeeeeeeeeebbbbbbbbbbbbbbbbbbbbbba",
".bbbbbbbbbbbeeeeeeeeebbb#bbb#bbb#bbb#bbb#bba",
".bbbbbbbbbbbeebbbbbbbbbbbbbbbbbbbbbbbbbbbbba",
".bbbbbbbbbbbeebbbbbbbbbbbbbbbbbbbbbbbbbbbbba",
".bbbbbbbbbbbeebbbbbbbcccccccdbbbbbbbbbbbbbba",
".fbbbfbbbfbbeebbbfbbbcccccccdfbbbfbbbfbbbfba",
".bbbbbbbbbbbeebbbbbbbcc####ddbbbbbbbbbbbbbba",
".bbfbfbfbfbfeeeeeeeeeccb#b#ddbbfbfbfbbbfbfba",
".bbbbbbbbbbbeeeeeeeeecc####ddbbbbbbbbbbbbbba",
".fbfbfbfbfbfbfbfbfbfbccb#b#ddfbfbfbfbfbfbfba",
".bbbbbbbbbbbbbbbbbbbbccddddddbbbbbbbbbbbbbba",
".fbfbfbfbfbfbfbfbfbfbddddddddfbfbfbfbfbfbfba",
".bfbbbfbbbfbbbfbbbfbbbfbeefbbbfbbbfbbbfbbbfa",
".fbfbfbfbfbfbfbfbfbfbfbfeebfbfbfbfbfbfbfbfba",
".bfbfbfbfbfbfbfbfbfbfbfbeefbfbfbfbfbfbfbfbfa",
".ffbfffbfffbfffbfffbfffbeefbfffbfffbfffbfffa",
".fbfbfbfbfbfbfbfbfbfbfbfeebfbfbfbfbfbfbfbfba",
".fffffffffffffffffffffffeeeeeeeeeffffffffffa",
".fbfbfbfbfbfbfbfbfbfbfbfeeeeeeeeefbfbfbfbfba",
".fffffffffffffffffffffffeefffffffffffffffffa",
".fffbfffbfffbfffbfffbfffeeffbfffbfffbfffbffa",
".fffffffffffffffffffffffeefffffffffffffffffa",
".fbfffbfffffffbfffffffbfffffffbfffffffbffffa",
".ffffffffffffffffffffffffffffffffffffffffffa",
".ffffffffffffffffffffffffffffffffffffffffffa",
"#aaaaaaaaaaaaaaaaaaaaaaaaaaaaaaaaaaaaaaaaaaa"};
