/* XPM */
static char *icn38[]={
"44 44 7 1",
"a c #000000",
"c c #0000c0",
"e c #9a9b97",
"d c #a0a0a0",
"b c #a6a2a6",
"# c #b6b6b6",
". c #ffffff",
"...........................................#",
".##########################################a",
".##########################################a",
".##########################################a",
".b##aaaaaaaaaaaaaaaaaaaaaaaaaaaaaaaaaaaa#b#a",
".###accccccccccccccccccccccdddcdddcadaca###a",
".b#baccccccccccccccccccccccdddcaaacdadca#b#a",
".###accccccccccccccccccccccaaacdadcadaca##ba",
".b#bacccccccccccccccccccccccccccccccccca#b#a",
".###a###b###b###b###b###b###b###b###b##ab##a",
".b#bab#b#b#b#b#b#b#b#b#b#b#b#b#b#b#b#b#a#b#a",
".b#bab#b#b#b#b#b#b#b#b#b#b#b#b#b#b#b#b#a#b#a",
".#b#a#b#b#b#b#b#b#b#b#b#b#b#b#b#b#b#b#bab#ba",
".b#bab#b#b#b#b#b#b#b#b#b#b#b#b#b#b#b#b#a#b#a",
".bb#abb#bbb#bbb#bbb#bbb#bbb#bbb#bbb#bbbabbba",
".b#bab#b#b#b#b#b#b#b#b#b#b#b#b#b#b#b#b#a#b#a",
".bbbabbbbbbbbbbbbbbbbbbbbbbbbbbbbbbbbbbabbba",
".b#bab#b#b#b#b#b#b#b#b#b#b#b#b#b#b#b#b#a#b#a",
".bbbabbbbbbbbbbbbbbbbbbbbbbbbbbbbbbbbbbabbba",
".bbbabbbbbbb#bbb#bbb#bbb#bbb#bbb#bbb#bba#bba",
".bbbabbbbbbbbbbbbbbbbbbbbbbbbbbbbbbbbbbabbba",
".bbbabbbbbbbbbbbbbbbbbbbbbbbbbbbbbbbbbbabbba",
".bbbabbbbbbbbbbbbbbbbbbbbbbbbbbbbbbbbbbabbba",
".ebbaebbbebbbebbbebbbebbbebbbebbbebbbebabeba",
".bbbabbbbbbbbbbbbbbbbbbbbbbbbbbbbbbbbbbabbba",
".bbeaebebebebbbebebebbbebebebbbebebebbbabeba",
".bbbabbbbbbbbbbbbbbbbbbbbbbbbbbbbbbbbbbabbba",
".ebeaebebebebebebebebebebebebebebebebebabeba",
".bbbabbbbbbbbbbbbbbbbbbbbbbbbbbbbbbbbbbabbba",
".ebeaebebebebebebebebebebebebebebebebebabeba",
".bebabebbbebbbebbbebbbebbbebbbebbbebbbeabbea",
".ebeaeb...........b..........ebebebebebabeba",
".bebabe.ebebebebeae.ebebebebabebebebebeaebea",
".eebaee.eeaaeaabeae.eaabaaebaeebeeebeeeaeeea",
".ebeaeb.bebebebebab.bebebebeaebebebebebabeba",
".eeeaee.aaaaaaaaaae.aaaaaaaaaeeeeeeeeeeaeeea",
".ebeaebebebebebebebebebebebebebebebebebabeba",
".eeeaeeeeeeeeeeeeeeeeeeeeeeeeeeeeeeeeeeaeeea",
".eeeaeeebeeebeeebeeebeeebeeebeeebeeebeeabeea",
".eeeaaaaaaaaaaaaaaaaaaaaaaaaaaaaaaaaaaaaeeea",
".ebeeebeeeeeeebeeeeeeebeeeeeeebeeeeeeebeeeea",
".eeeeeeeeeeeeeeeeeeeeeeeeeeeeeeeeeeeeeeeeeea",
".eeeeeeeeeeeeeeeeeeeeeeeeeeeeeeeeeeeeeeeeeea",
"#aaaaaaaaaaaaaaaaaaaaaaaaaaaaaaaaaaaaaaaaaaa"};
