/* XPM */
static char *icn37[]={
"44 44 5 1",
"a c #000000",
"c c #b9bab6",
"b c #c5c1c5",
"# c #d5d5d5",
". c #ffffff",
"...........................................#",
".##########################################a",
".##########################################a",
".##########################################a",
".b###b###b###b###b###b###b###b###b###b###b#a",
".##########################################a",
".b#b#b#b#b#b#b#b#b#b#b#b#b#b#b#b#b#b#b#b#b#a",
".#########b#######b#######b#######b#######ba",
".b#b#b#b#b#b#b#b#b#b#b#b#b#b#b#b#b#b#b#b#b#a",
".###b###b###b###b###b###b###b###b###b###b##a",
".b#b#b#b#b#b#b#b#b#b#b#b#b#b#b#b#b#b#b#b#b#a",
".b#b#b#b#b#b#b#b#b#b#b#b#b#b#b#b#b#b#b#b#b#a",
".#b#b#b#b#b#b#b#b#b#b#b#b#b#b#b#b#b#b#b#b#ba",
".b#b#b#b#b#b#b#b#b#b#b#b#b#b#b#b#b#b#b#b#b#a",
".bb#bbb#bbb#bbb#bbb#bbb#bbb#bbb#bbb#bbb#bbba",
".b#b#b#aaaaaaaaaaaaaaaaaaaaaaaaaaaaaaa#b#b#a",
".bbbbbbabbbbbbbbbbbbbbbbbbbbbbbbbbbbbabbbbba",
".b#b#b#a#b#b#b#b#b#b#b#b#b#b#b#b#b#b#a#b#b#a",
".bbbbbbabbbbbbbbbbbbbbbbbbbbbbbbbbbbbabbbbba",
".bbbbbbabbbb#aaaabbb#bbb#bbb#abb#bbb#abb#bba",
".bbbbbbabbbbbbabbaabbaabbbabbabbbbbbbabbbbba",
".bbbbbbabbbbbbaaabbabababaaababbbbbbbabbbbba",
".bbbbbbabbbbbbabbbaababababbbabbbbbbbabbbbba",
".cbbbcbabcbbbaabbcaabababcabbabbbcbbbabbbcba",
".bbbbbbabbbbbbbbbbbbbbbbbbbbbbbbbbbbbabbbbba",
".bbcbcbabcbcbbbcbcbcbbbcbcbcbbbcbcbcbabcbcba",
".bbbbbbabbbbbbbbbbbbbbbbbbbbbbbbbbbbbabbbbba",
".cbcbcbaaaaaaaaaaaaaaaaaaaaaaaaaaaaaaabcbcba",
".bbbbbbbbbbbbbbbbbbbbbbbbbbbbbbbbbbbbbbbbbba",
".cbcbcbcbcbcbcbcbcbcbcbcbcbcbcbcbcbcbcbcbcba",
".bcbbbcbbbcbbbcbbbcbbbcbbbcbbbcbbbcbbbcbbbca",
".cbcbcbcbcbcbcbcbcbcbcbcbcbcbcbcbcbcbcbcbcba",
".bcbcbcbcbcbcbcbcbcbcbcbcbcbcbcbcbcbcbcbcbca",
".ccbcccbcccbcccbcccbcccbcccbcccbcccbcccbccca",
".cbcbcbcbcbcbcbcbcbcbcbcbcbcbcbcbcbcbcbcbcba",
".cccccccccccccccccccccccccccccccccccccccccca",
".cbcbcbcbcbcbcbcbcbcbcbcbcbcbcbcbcbcbcbcbcba",
".cccccccccccccccccccccccccccccccccccccccccca",
".cccbcccbcccbcccbcccbcccbcccbcccbcccbcccbcca",
".cccccccccccccccccccccccccccccccccccccccccca",
".cbcccbcccccccbcccccccbcccccccbcccccccbcccca",
".cccccccccccccccccccccccccccccccccccccccccca",
".cccccccccccccccccccccccccccccccccccccccccca",
"#aaaaaaaaaaaaaaaaaaaaaaaaaaaaaaaaaaaaaaaaaaa"};
