/* XPM */
static char * img10_xpm[] = {
/* width height ncolors chars_per_pixel */
"44 44 5 1",
/* colors */
" 	c white",
".	c #D5D5D5",
"X	c black",
"o	c #C5C1C5",
"O	c #B9BAB6",
/* pixels */
"                                           .",
" ..........................................X",
" ..........................................X",
" ..........................................X",
" o...o...o...o...o...o...o...o...o...o...o.X",
" ..........................................X",
" o.o.o.o.o.o.o.o.o.o.o.o.o.o.o.o.o.o.o.o.o.X",
" .........o.......o.......o.......o.......oX",
" o.o.o.o.o.o.o.o.o.o.o.o.o.o.o.o.o.o.o.o.o.X",
" ...o...o...o...o...o...o...o...o...o...o..X",
" o.o.o.o.o.o.o.o.o.o.o.o.o.o.o.o.o.o.o.o.o.X",
" o.o.o.o.o.o.o.o.XXXXXXXXX o.o.o.o.o.o.o.o.X",
" .o.o.o.o.o.o.o.oXXXXXXXX  .o.o.o.o.o.o.o.oX",
" o.o.o.o.o.o.o.o.XXo.o.o.  o.o.o.o.o.o.o.o.X",
" oo.ooo.ooo.ooo.oXX.ooo.o  .ooo.ooo.ooo.oooX",
" o.o.o.o.o.o.o.o.XXo.o.o.  o.o.o.o.o.o.o.o.X",
" ooooooooooooooooXXoooooo  ooooooooooooooooX",
" o.o.o.o.o.o.o.o.XXo.o.o.  o.o.o.o.o.o.o.o.X",
" ooooooooooooooooXXoooooo  ooooooooooooooooX",
" ooo.ooo.ooo.ooo.X         o.ooo.ooo.ooo.ooX",
" oooooooooooooooo          ooooooooooooooooX",
" ooooooooooooooooooooooooooooooooooooooooooX",
" ooooooooooooooooooooooooooooooooooooooooooX",
" OoooOoooOoooOoooOoooOoooOoooOoooOoooOoooOoX",
" ooooooooooooooooooooooooooooooooooooooooooX",
" ooOoooOoOoOoooOoOoOoooOoOoOoooOoOoOoooOoOoX",
" ooooooooooooooooooooooooooooooooooooooooooX",
" OoOoXXXoOXOoOoOoOoOoOXOoOXXXOoOoOoOoOoOoOoX",
" oooXoooXoXXoooXoooXooXoXooXoXooXooXooXooooX",
" OoOXOoOoOXOXOXXXOXOoOXXoOoXXOoXoXoOXXoOoOoX",
" oOoXoOoXoXoXoXoooXoooXXooOXoXOXoXOoXXOoooOX",
" OoOoXXXoOXOXOoXoOoXoOXOXOXXXOoOXOoXoOXOoOoX",
" oOoOoOoOoOoOoOoOoOoOoOoOoOoOoOoOoOoOoOoOoOX",
" OOoOOOoOOOoOOOoOOOoOOOoOOOoOOOoOOOoOOOoOOOX",
" OoOoOoOoOoOoOoOoOoOoOoOoOoOoOoOoOoOoOoOoOoX",
" OOOOOOOOOOOOOOOOOOOOOOOOOOOOOOOOOOOOOOOOOOX",
" OoOoOoOoOoOoOoOoOoOoOoOoOoOoOoOoOoOoOoOoOoX",
" OOOOOOOOOOOOOOOOOOOOOOOOOOOOOOOOOOOOOOOOOOX",
" OOOoOOOoOOOoOOOoOOOoOOOoOOOoOOOoOOOoOOOoOOX",
" OOOOOOOOOOOOOOOOOOOOOOOOOOOOOOOOOOOOOOOOOOX",
" OoOOOoOOOOOOOoOOOOOOOoOOOOOOOoOOOOOOOoOOOOX",
" OOOOOOOOOOOOOOOOOOOOOOOOOOOOOOOOOOOOOOOOOOX",
" OOOOOOOOOOOOOOOOOOOOOOOOOOOOOOOOOOOOOOOOOOX",
".XXXXXXXXXXXXXXXXXXXXXXXXXXXXXXXXXXXXXXXXXXX"};
