/* XPM */
static char *icn34[]={
"44 44 6 1",
"a c #000000",
"d c #9a9b97",
"b c #a6a2a6",
"# c #b6b6b6",
"c c #ff0000",
". c #ffffff",
"...........................................#",
".##########################################a",
".##########################################a",
".##########################################a",
".b###b###b###b###b###b##................#b#a",
".#######################.##############a###a",
".b#b#b#b#b#b#b#b#b#b#b#b.b#b#b#b#b#b#b#a#b#a",
".#########b#######b#####.#b#######b####a##ba",
".b#b#b#b#b#b#b#b#b#b#b#b.b#b#b#b#b#b#b#a#b#a",
".###b###b###b###b###b###.###b###b###b##ab##a",
".b#b#b#b#b#b#b#b#b#b#b#b.aaaaaaaaaaaaaaa#b#a",
".b#b#b#b#b#baaab#b#b#b#b#b#b#b#b#b#b#b#b#b#a",
".#b#b#b#b#b#aaa#b#b#b#b#b#b#b#b#b#b#b#b#b#ba",
".b#b#b#b#b#baaab#b#b#b#b#b#b#b#b#b#b#b#b#b#a",
".bb#bbb#bbb#aaa#bbb#bbb#cc............ccbbba",
".b#b#b#b#b#baaab#b#b#b#bcb#b#b#b#b#b#b#c#b#a",
".bbbbbbbbbbbaaabbbbbbbbb.bbbbbbbbbbbbbbabbba",
".b#b#b#baaaaaaaaaaab#b#b.b#b#b#b#b#b#b#a#b#a",
".bbbbbbbbaaaaaaaaabbbbbb.bbbbbbbbbbbbbbabbba",
".bbbbbbbbbaaaaaaabbb#bbbcbbb#bbb#bbb#bbc#bba",
".bbbbbbbbbbaaaaabbbbbbbbccaaaaaaaaaaaaccbbba",
".bbbbbbbbbbbaaabbbbbbbbbbbbbbbbbbbbbbbbbbbba",
".bbbbbbbbbbbbabbbbbbbbbbbbbbbbbbbbbbbbbbbbba",
".dbbbdbbbdbbbdbbbdbbbdbbbdbbbdbbbdbbbdbbbdba",
".bbbbbbbbbbbbbbbbbbbbbbb................bbba",
".bbdbdbdbdbdbbbdbdbdbbbd.dbdbbbdbdbdbbbabdba",
".bbbbbbbbbbbbbbbbbbbbbbb.bbbbbbbbbbbbbbabbba",
".dbdbdbdbdbdbdbdbdbdbdbd.dbdbdbdbdbdbdbabdba",
".bbbbbbbbbbbbbbbbbbbbbbb.bbbbbbbbbbbbbbabbba",
".dbdbdbdbdbdbdbdbdbdbdbd.dbdbdbdbdbdbdbabdba",
".bdbbbdbbbdbbbdbbbdbbbdb.aaaaaaaaaaaaaaabbda",
".dbdbdbdbdbdbdbdbdbdbdbdbdbdbdbdbdbdbdbdbdba",
".bdbdbdbdbdbdbdbdbdbdbdbdbdbdbdbdbdbdbdbdbda",
".ddbdddbdddbdddbdddbdddbdddbdddbdddbdddbddda",
".dbdbdbdbdbdbdbdbdbdbdbd................bdba",
".ddddddddddddddddddddddd.ddddddddddddddaddda",
".dbdbdbdbdbdbdbdbdbdbdbd.dbdbdbdbdbdbdbabdba",
".ddddddddddddddddddddddd.ddddddddddddddaddda",
".dddbdddbdddbdddbdddbddd.dddbdddbdddbddabdda",
".ddddddddddddddddddddddd.ddddddddddddddaddda",
".dbdddbdddddddbdddddddbd.aaaaaaaaaaaaaaaddda",
".dddddddddddddddddddddddddddddddddddddddddda",
".dddddddddddddddddddddddddddddddddddddddddda",
"#aaaaaaaaaaaaaaaaaaaaaaaaaaaaaaaaaaaaaaaaaaa"};
