/* XPM */
static char *icn33[]={
"44 44 6 1",
"a c #000000",
"c c #9a9b97",
"b c #a6a2a6",
"# c #b6b6b6",
"d c #ff0000",
". c #ffffff",
"...........................................#",
".##########################################a",
".##########################################a",
".##########################################a",
".b###b###b###b###b###b##................#b#a",
".#######################.##############a###a",
".b#b#b#b#b#b#b#b#b#b#b#b.b#b#b#b#b#b#b#a#b#a",
".#########b#######b#####.#b#######b####a##ba",
".b#b#b#b#b#b#b#b#b#b#b#b.b#b#b#b#b#b#b#a#b#a",
".###b###b###b###b###b###.###b###b###b##ab##a",
".b#b#b#b#b#b#b#b#b#b#b#b.aaaaaaaaaaaaaaa#b#a",
".b#b#b#b#b#b#b#b#b#b#b#b#b#b#b#b#b#b#b#b#b#a",
".#b#b#b#b#b#b#b#b#b#b#b#b#b#b#b#b#b#b#b#b#ba",
".b#b#b#b#b#b#b#b#b#b#b#b#b#b#b#b#b#b#b#b#b#a",
".bb#bbb#bbb#bbb#bbb#bbb#................bbba",
".b#b#b#b#b#b#b#b#b#b#b#b.b#b#b#b#b#b#b#a#b#a",
".bbbbbbbbbbbbbbbbbbbbbbb.bbbbbbbbbbbbbbabbba",
".b#b#b#b#b#b#b#b#b#b#b#b.b#b#b#b#b#b#b#a#b#a",
".bbbbbbbbbbbbbbbbbbbbbbb.bbbbbbbbbbbbbbabbba",
".bbbbbbbbbbb#bbb#bbb#bbb.bbb#bbb#bbb#bba#bba",
".bbbbbbbbbbbbbbbbbbbbbbb.aaaaaaaaaaaaaaabbba",
".bbbbbbbbbbbbbbbbbbbbbbbbbbbbbbbbbbbbbbbbbba",
".bbbbbbbbbbbbabbbbbbbbbbbbbbbbbbbbbbbbbbbbba",
".cbbbcbbbcbbaaabbcbbbcbbbcbbbcbbbcbbbcbbbcba",
".bbbbbbbbbbaaaaabbbbbbbbdd............ddbbba",
".bbcbcbcbcaaaaaaacbcbbbcdcbcbbbcbcbcbbbdbcba",
".bbbbbbbbaaaaaaaaabbbbbb.bbbbbbbbbbbbbbabbba",
".cbcbcbcaaaaaaaaaaacbcbc.cbcbcbcbcbcbcbabcba",
".bbbbbbbbbbbaaabbbbbbbbb.bbbbbbbbbbbbbbabbba",
".cbcbcbcbcbcaaacbcbcbcbcdcbcbcbcbcbcbcbdbcba",
".bcbbbcbbbcbaaabbbcbbbcbddaaaaaaaaaaaaddbbca",
".cbcbcbcbcbcaaacbcbcbcbcbcbcbcbcbcbcbcbcbcba",
".bcbcbcbcbcbaaabcbcbcbcbcbcbcbcbcbcbcbcbcbca",
".ccbcccbcccbaaabcccbcccbcccbcccbcccbcccbccca",
".cbcbcbcbcbcbcbcbcbcbcbc................bcba",
".ccccccccccccccccccccccc.ccccccccccccccaccca",
".cbcbcbcbcbcbcbcbcbcbcbc.cbcbcbcbcbcbcbabcba",
".ccccccccccccccccccccccc.ccccccccccccccaccca",
".cccbcccbcccbcccbcccbccc.cccbcccbcccbccabcca",
".ccccccccccccccccccccccc.ccccccccccccccaccca",
".cbcccbcccccccbcccccccbc.aaaaaaaaaaaaaaaccca",
".cccccccccccccccccccccccccccccccccccccccccca",
".cccccccccccccccccccccccccccccccccccccccccca",
"#aaaaaaaaaaaaaaaaaaaaaaaaaaaaaaaaaaaaaaaaaaa"};
