/* XPM */
static char *icn35[]={
"44 44 9 1",
"a c #000000",
"e c #88c3ad",
"f c #9a9b97",
"b c #a6a2a6",
"d c #a9cdc1",
"# c #b6b6b6",
"g c #eafdf6",
"c c #fdfdfd",
". c #ffffff",
"...........................................#",
".##########################################a",
".##########################################a",
".##########################################a",
".b###b###b###b###b###b###b###b###b###b###b#a",
".##########################################a",
".b#b#b#b#b#b#b#b#b#b#b#b#b#b#b#b#b#b#b#b#b#a",
".#########b#######b#######b#######b#######ba",
".b#b#b#b#b#b#b#b#b#b#b#b#b#b#b#b#b#b#b#b#b#a",
".###b###b###b###b###b###b###b###b###b###b##a",
".b#b#b#b#b#b#b#b#b#b#b#b#b#b#b#b#b#b#b#b#b#a",
".b#b#b#b#b#baaaaaaaaaaaaaaaaaa#b#b#b#b#b#b#a",
".#b#b#b#b#b#accacaaaaaaaaacacca#b#b#b#b#b#ba",
".b#b#b#b#b#bacdaccccccccccca#bac#b#b#b#b#b#a",
".bb#bbb#bbb#aceaceeeeeeeeecaaaacbbb#bbb#bbba",
".b#b#b#b#b#bacdacccccccccccadeac#b#b#b#b#b#a",
".bbbbbbbbbbbaceaceeeeeeeeecaedacbbbbbbbbbbba",
".b#b#b#b#b#bacdacccccccccccadeac#b#b#b#b#b#a",
".bbbbbbbbbbbaceadddddddddddaedacbbbbbbbbbbba",
".bbbbbbbbbbbacdeaaaaaaaaaaaedeac#bbb#bbb#bba",
".bbbbbbbbbbbacededededededededacbbbbbbbbbbba",
".bbbbbbbbbbbacdedededededededeacbbbbbbbbbbba",
".bbbbbbbbbbbacededededededededacbbbbbbbbbbba",
".fbbbfbbbfbbacdeaaaaaaaaaaaadeacbfbbbfbbbfba",
".bbbbbbbbbbbacedaccccccccacaedacbbbbbbbbbbba",
".bbfbfbfbfbfacdeaggggggggaeadeacbfbfbbbfbfba",
".bbbbbbbbbbbacedaggaaggggaeaedacbbbbbbbbbbba",
".fbfbfbfbfbfacdeaggaaggggaeadeacbfbfbfbfbfba",
".bbbbbbbbbbbacedaggaaggggaeaedacbbbbbbbbbbba",
".fbfbfbfbfbfacdeaggaaggggaeadeacbfbfbfbfbfba",
".bfbbbfbbbfbbaaaaaaaaaaaaaaaaaacbbfbbbfbbbfa",
".fbfbfbfbfbfbcccccccccccccccccccbfbfbfbfbfba",
".bfbfbfbfbfbfbfbfbfbfbfbfbfbfbfbfbfbfbfbfbfa",
".ffbfffbfffbfffbfffbfffbfffbfffbfffbfffbfffa",
".fbfbfbfbfbfbfbfbfbfbfbfbfbfbfbfbfbfbfbfbfba",
".ffffffffffffffffffffffffffffffffffffffffffa",
".fbfbfbfbfbfbfbfbfbfbfbfbfbfbfbfbfbfbfbfbfba",
".ffffffffffffffffffffffffffffffffffffffffffa",
".fffbfffbfffbfffbfffbfffbfffbfffbfffbfffbffa",
".ffffffffffffffffffffffffffffffffffffffffffa",
".fbfffbfffffffbfffffffbfffffffbfffffffbffffa",
".ffffffffffffffffffffffffffffffffffffffffffa",
".ffffffffffffffffffffffffffffffffffffffffffa",
"#aaaaaaaaaaaaaaaaaaaaaaaaaaaaaaaaaaaaaaaaaaa"};
