/* XPM */
static char *icn36[]={
"44 44 7 1",
"a c #000000",
"e c #9a9b97",
"b c #a6a2a6",
"# c #b6b6b6",
"d c #c0ffc0",
"c c #ffff00",
". c #ffffff",
"...........................................#",
".##########################################a",
".##########################################a",
".##########################################a",
".b###baaaa###b###b###b###b###b###b###b###b#a",
".####acccca################################a",
".b#bacccccca#b#b#b#b#b#b#b#b#b#b#b#b#b#b#b#a",
".##aaaaaaaaaaaaa##b#######b#######b#######ba",
".b#a#c#c#c#c#c#a#b#b#b#b#b#b#b#b#b#b#b#b#b#a",
".##ac#caaaaaaaaaaaa#b###b###b###b###b###b##a",
".b#a#cacccccccccccab#b#b#b#b#b#b#b#b#b#b#b#a",
".b#acbacccccccccca#b#b#b#b#b#b#b#b#b#b#b#b#a",
".#babacccccccccccab#b#b#b#b#b#b#b#b#b#b#b#ba",
".b#acaccccccccccca#b#b#b#b#b#b#b#b#b#b#b#b#a",
".bbaaccccccccccaabb#bbb#bbb#bbb#bbb#bbb#bbba",
".b#aaaaaaaaaaaaa#b#b#b#b#b#b#b#b#b#b#b#b#b#a",
".bbbbbbbbbbbbbbbbbbbbbbbbbbbbbbbbbbbbbbbbbba",
".b#b#b#b#a#b#b#b#b#b#b#b#b#b#b#b#b#b#b#b#b#a",
".bbbbbbbbbbbbbbbbbbbbaaaabbbbbbbbbbbbbbbbbba",
".bbbbbbbbabb#bbb#bbbaddddabb#bbb#bbb#bbb#bba",
".bbbbbbbbbbbbbbbbbbaddddddabbbbbbbbbbbbbbbba",
".bbbbbbbbabbbbbbbbaaaaaaaaaaaaabbbbbbbbbbbba",
".bbbbbaaaaaaabbbbbadddddddddddabbbbbbbbbbbba",
".ebbbeabbebbaebbbeadddddddddddabbebbbebbbeba",
".bbbbbabbabbabbbbbadddddddddddabbbbbbbbbbbba",
".bbebeaeaaaeaababaadddddddddddaebebebbbebeba",
".bbbbbabbabbabbbbbadddddddddddabbbbbbbbbbbba",
".ebebeaebebeaebebeadddddddddddaebebebebebeba",
".bbbbbaaaaaaabbbbbadddddddddddabbbbbbbbbbbba",
".ebebebebabebebebeaaaaaaaaaaaaaebebebebebeba",
".bebbbebbbebbbebbbebbbebbbebbbebbbebbbebbbea",
".ebebebebabebebebebebebebebebebebebebebebeba",
".bebebebebebebebebebebebebebebebebebebebebea",
".eebeeebeaebeeebeeebeeebeeebeeebeeebeeebeeea",
".ebebebebebebebebebebebebebebebebebebebebeba",
".eeeeeeeeeeeeeeeeeeeeeeeeeeeeeeeeeeeeeeeeeea",
".ebebebebebebebebebebebebebebebebebebebebeba",
".eeeeeeeeeeeeeeeeeeeeeeeeeeeeeeeeeeeeeeeeeea",
".eeebeeebeeebeeebeeebeeebeeebeeebeeebeeebeea",
".eeeeeeeeeeeeeeeeeeeeeeeeeeeeeeeeeeeeeeeeeea",
".ebeeebeeeeeeebeeeeeeebeeeeeeebeeeeeeebeeeea",
".eeeeeeeeeeeeeeeeeeeeeeeeeeeeeeeeeeeeeeeeeea",
".eeeeeeeeeeeeeeeeeeeeeeeeeeeeeeeeeeeeeeeeeea",
"#aaaaaaaaaaaaaaaaaaaaaaaaaaaaaaaaaaaaaaaaaaa"};
