/* XPM */
static char *icn40[]={
"44 44 9 1",
"a c #000000",
"c c #484873",
"g c #9a9b97",
"b c #a6a2a6",
"# c #b6b6b6",
"f c #ceceff",
"e c #d3d3ff",
"d c #fbfbff",
". c #ffffff",
"...........................................#",
".##########################################a",
".##########################################a",
".##########################################a",
".b###b###b###b###b###b###b###b###b###b###b#a",
".##########################################a",
".b#b#b#b#b#b#b#b#b#b#b#b#b#b#b#b#b#b#b#b#b#a",
".#########b#######b#######b#######b#######ba",
".b#b#b#b#b#b#b#b#b#b#b#b#b#b#b#b#b#b#b#b#b#a",
".###b###b###b###b###b###b###b###b###b###b##a",
".b#b#b#b#b#b#b#b#b#b#b#b#b#b#b#b#b#b#b#b#b#a",
".b#b#b#b#b#b#bcccccccccccccb#b#b#b#b#b#b#b#a",
".#b#b#b#b#b#b#c..d.....d.cc.b#b#b#b#b#b#b#ba",
".b#b#b#b#b#b#bc.eeeeeeefcfdc#b#b#b#b#b#b#b#a",
".bb#bbb#bbb#bbc.edddddddfcfc.bb#bbb#bbb#bbba",
".b#b#b#b#b#b#bc.eddddddddfcfcb#b#b#b#b#b#b#a",
".bbbbbbbbbbbbbc.edddddddddfcc.bbbbbbbbbbbbba",
".b#b#b#b#b#b#bc.edddddcddddfcc#b#b#b#b#b#b#a",
".bbbbbbbbbbbbbcdeddcddcddcddecdbbbbbbbbbbbba",
".bbbbbbbbbbb#bcdedddcdcdcdddfc.b#bbb#bbb#bba",
".bbbbbbbbbbbbbc.eddddcccddd.fc.bbbbbbbbbbbba",
".bbbbbbbbbbbbbc.edcccccccccdfc.bbbbbbbbbbbba",
".bbbbbbbbbbbbbc.eddddcccddddfcdbbbbbbbbbbbba",
".gbbbgbbbgbbbgc.edddcdcdcdddfcdbbgbbbgbbbgba",
".bbbbbbbbbbbbbc.eddcddcddcddfcdbbbbbbbbbbbba",
".bbgbgbgbgbgbbc.edddddcdddddfcdgbgbgbbbgbgba",
".bbbbbbbbbbbbbc.edddddddddddfc.bbbbbbbbbbbba",
".gbgbgbgbgbgbgcdedddddddddddecdgbgbgbgbgbgba",
".bbbbbbbbbbbbbc.edddddddddddfc.bbbbbbbbbbbba",
".gbgbgbgbgbgbgc.fefffffffffffc.gbgbgbgbgbgba",
".bgbbbgbbbgbbbcccccccccccccccc.bbbgbbbgbbbga",
".gbgbgbgbgbgbgb..d........d....gbgbgbgbgbgba",
".bgbgbgbgbgbgbgbgbgbgbgbgbgbgbgbgbgbgbgbgbga",
".ggbgggbgggbgggbgggbgggbgggbgggbgggbgggbggga",
".gbgbgbgbgbgbgbgbgbgbgbgbgbgbgbgbgbgbgbgbgba",
".gggggggggggggggggggggggggggggggggggggggggga",
".gbgbgbgbgbgbgbgbgbgbgbgbgbgbgbgbgbgbgbgbgba",
".gggggggggggggggggggggggggggggggggggggggggga",
".gggbgggbgggbgggbgggbgggbgggbgggbgggbgggbgga",
".gggggggggggggggggggggggggggggggggggggggggga",
".gbgggbgggggggbgggggggbgggggggbgggggggbgggga",
".gggggggggggggggggggggggggggggggggggggggggga",
".gggggggggggggggggggggggggggggggggggggggggga",
"#aaaaaaaaaaaaaaaaaaaaaaaaaaaaaaaaaaaaaaaaaaa"};
