/* XPM */
static char *icon[]={
"26 29 7 1",
"# c None",
". c #000000",
"b c #9a9b97",
"d c #a020f0",
"c c #cfdf30",
"e c #ff0000",
"a c #ffffff",
".................#########",
".aaaaaaaaaaaaaaa..########",
".aaaaaaaaaaaaaaa.a.#######",
".aabbbbbbbbbbbbb.aa.######",
".aabbbbbcccbbbbb.aaa.#####",
".aabbbbcccccbbbb.aaaa.####",
".aabbbcccccccbbb.aaaaa.###",
".aabbcccccccccbb.aaaaaa.##",
".aabbcccccccccbb.aaaaaaa.#",
".aabbcccccccccbb..........",
".aabbbcccccccbbb..........",
".aabbbbcccccbbbbbbbbbbaa..",
".aabbbbbcccbbbbbbbbbbbaa..",
".aabbbbbbbbbbbbbbbbbbbaa..",
".aadbbbbbbbbbbbbbbbbbbaa..",
".aaddbbbbbbbbeeeeeeebbaa..",
".aadddbbbbbbbeeeeeeebbaa..",
".aaddddbbbbbbeeeeeeebbaa..",
".aadddddbbbbbeeeeeeebbaa..",
".aaddddddbbbbeeeeeeebbaa..",
".aadddddbbbbbeeeeeeebbaa..",
".aaddddbbbbbbeeeeeeebbaa..",
".aadddbbbbbbbeeeeeeebbaa..",
".aaddbbbbbbbbbbbbbbbbbaa..",
".aadbbbbbbbbbbbbbbbbbbaa..",
".aaaaaaaaaaaaaaaaaaaaaaa..",
".aaaaaaaaaaaaaaaaaaaaaaa..",
"..........................",
".........................."};
